<?xml version="1.0" encoding="UTF-8" standalone="no"?>
<!DOCTYPE svg PUBLIC "-//W3C//DTD SVG 1.1//EN" "http://www.w3.org/Graphics/SVG/1.1/DTD/svg11.dtd">
<svg version="1.1" xmlns="http://www.w3.org/2000/svg" xmlns:xlink="http://www.w3.org/1999/xlink" preserveAspectRatio="xMidYMid meet" viewBox="0 0 640 640" width="640" height="640"><defs><path d="M28.8 2.58C19.62 -2.73 7.87 0.42 2.57 9.6C0.89 12.52 0 15.83 0 19.2C0 34.41 0 156.06 0 171.26C0 181.87 8.6 190.46 19.2 190.46C22.57 190.46 25.88 189.58 28.8 187.89C41.97 180.29 147.32 119.46 160.49 111.86C169.67 106.56 172.82 94.82 167.52 85.63C165.83 82.71 163.41 80.29 160.49 78.61C134.15 63.4 41.97 10.18 28.8 2.58Z" id="as0Z7Esvj"></path><path d="M28.8 221.15C19.62 215.85 7.87 218.99 2.57 228.18C0.89 231.09 0 234.4 0 237.77C0 252.98 0 374.63 0 389.84C0 400.44 8.6 409.04 19.2 409.04C22.57 409.04 25.88 408.15 28.8 406.46C41.97 398.86 147.32 338.04 160.49 330.43C169.67 325.13 172.82 313.39 167.52 304.2C165.83 301.29 163.41 298.86 160.49 297.18C134.15 281.97 41.97 228.75 28.8 221.15Z" id="d7ZFuFoYBm"></path><path d="M28.8 439.72C19.62 434.42 7.87 437.56 2.57 446.75C0.89 449.67 0 452.98 0 456.35C0 471.55 0 593.2 0 608.41C0 619.01 8.6 627.61 19.2 627.61C22.57 627.61 25.88 626.72 28.8 625.04C41.97 617.43 147.32 556.61 160.49 549.01C169.67 543.7 172.82 531.96 167.52 522.78C165.83 519.86 163.41 517.43 160.49 515.75C134.15 500.54 41.97 447.32 28.8 439.72Z" id="croHMQ4rd"></path><path d="M218.09 111.86C208.91 106.56 197.16 109.71 191.86 118.89C190.18 121.81 189.29 125.12 189.29 128.49C189.29 143.69 189.29 265.34 189.29 280.55C189.29 291.15 197.89 299.75 208.49 299.75C211.86 299.75 215.17 298.86 218.09 297.18C231.26 289.57 336.61 228.75 349.78 221.15C358.96 215.84 362.11 204.1 356.8 194.92C355.12 192 352.7 189.58 349.78 187.89C323.44 172.69 231.26 119.46 218.09 111.86Z" id="bklZDXcVl"></path><path d="M218.09 330.43C208.91 325.13 197.16 328.28 191.86 337.46C190.18 340.38 189.29 343.69 189.29 347.06C189.29 362.27 189.29 483.92 189.29 499.12C189.29 509.73 197.89 518.32 208.49 518.32C211.86 518.32 215.17 517.43 218.09 515.75C231.26 508.15 336.61 447.32 349.78 439.72C358.96 434.42 362.11 422.67 356.81 413.49C355.12 410.57 352.7 408.15 349.78 406.46C323.44 391.26 231.26 338.04 218.09 330.43Z" id="b5kOFAgh0"></path><path d="M407.38 221.15C398.19 215.85 386.45 218.99 381.15 228.18C379.46 231.09 378.58 234.4 378.58 237.77C378.58 252.98 378.58 374.63 378.58 389.84C378.58 400.44 387.17 409.04 397.78 409.04C401.15 409.04 404.46 408.15 407.38 406.46C420.55 398.86 525.9 338.04 539.07 330.43C548.25 325.13 551.39 313.39 546.09 304.2C544.41 301.29 541.98 298.86 539.07 297.18C512.73 281.97 420.55 228.75 407.38 221.15Z" id="daRfyFgVp"></path></defs><g><g><g><use xlink:href="#as0Z7Esvj" opacity="1" fill="#000000" fill-opacity="1"></use><g><use xlink:href="#as0Z7Esvj" opacity="1" fill-opacity="0" stroke="#000000" stroke-width="1" stroke-opacity="0"></use></g></g><g><use xlink:href="#d7ZFuFoYBm" opacity="1" fill="#000000" fill-opacity="1"></use><g><use xlink:href="#d7ZFuFoYBm" opacity="1" fill-opacity="0" stroke="#000000" stroke-width="1" stroke-opacity="0"></use></g></g><g><use xlink:href="#croHMQ4rd" opacity="1" fill="#000000" fill-opacity="1"></use><g><use xlink:href="#croHMQ4rd" opacity="1" fill-opacity="0" stroke="#000000" stroke-width="1" stroke-opacity="0"></use></g></g><g><use xlink:href="#bklZDXcVl" opacity="1" fill="#000000" fill-opacity="1"></use><g><use xlink:href="#bklZDXcVl" opacity="1" fill-opacity="0" stroke="#000000" stroke-width="1" stroke-opacity="0"></use></g></g><g><use xlink:href="#b5kOFAgh0" opacity="1" fill="#000000" fill-opacity="1"></use><g><use xlink:href="#b5kOFAgh0" opacity="1" fill-opacity="0" stroke="#000000" stroke-width="1" stroke-opacity="0"></use></g></g><g><use xlink:href="#daRfyFgVp" opacity="1" fill="#000000" fill-opacity="1"></use><g><use xlink:href="#daRfyFgVp" opacity="1" fill-opacity="0" stroke="#000000" stroke-width="1" stroke-opacity="0"></use></g></g></g></g></svg>